<?xml version="1.0" encoding="iso-8859-1"?>
<!-- Generator: Adobe Illustrator 19.0.0, SVG Export Plug-In . SVG Version: 6.00 Build 0)  -->
<svg version="1.1" id="Capa_1" xmlns="http://www.w3.org/2000/svg" xmlns:xlink="http://www.w3.org/1999/xlink" x="0px" y="0px"
	 viewBox="0 0 512 512" style="enable-background:new 0 0 512 512;" xml:space="preserve">
<path style="fill:#00459F;" d="M371.78,470.12h-1.3L383.67,512H128.33l13.19-41.88h-1.29l-3.36-1.83
	C56.59,424.55,6.72,340.63,6.72,249.28c0-66.59,25.93-129.18,73.01-176.27C126.82,25.93,189.42,0,256,0s129.18,25.93,176.27,73.01
	c47.08,47.09,73.01,109.68,73.01,176.27c0,91.35-49.87,175.27-130.15,219.01L371.78,470.12z"/>
<path style="fill:#002D6B;" d="M371.78,470.12h-1.3L383.67,512H256V0c66.58,0,129.18,25.93,176.27,73.01
	c47.08,47.09,73.01,109.68,73.01,176.27c0,91.35-49.87,175.27-130.15,219.01L371.78,470.12z"/>
<path style="fill:#AEADB3;" d="M360.12,382.62l-28.83,8.28l10.32,35.99H170.39l10.32-35.99l-28.83-8.28L114.76,512h282.48
	L360.12,382.62z M154.58,482l7.2-25.11h188.44l7.2,25.11H154.58z"/>
<polygon style="fill:#8B8992;" points="397.24,512 256,512 256,482 357.42,482 350.22,456.89 256,456.89 256,426.89 341.61,426.89 
	331.29,390.9 360.12,382.62 "/>
<path style="fill:#FFAA20;" d="M397.39,175.48v169.41c0,31.36-25.52,56.87-56.88,56.87H171.49c-31.36,0-56.88-25.51-56.88-56.87
	V175.48c0-31.35,25.52-56.87,56.88-56.87h169.02C371.87,118.61,397.39,144.13,397.39,175.48z"/>
<rect x="215.47" y="335.18" style="fill:#FC025C;" width="81.06" height="30"/>
<rect x="168.17" y="335.18" style="fill:#D1FEFB;" width="30" height="30"/>
<path style="fill:#FF9A00;" d="M397.39,175.48v169.41c0,31.36-25.52,56.87-56.88,56.87H256V118.61h84.51
	C371.87,118.61,397.39,144.13,397.39,175.48z"/>
<rect x="313.63" y="335.18" style="fill:#85FDF5;" width="30" height="30"/>
<rect x="256" y="335.18" style="fill:#CD0045;" width="40.53" height="30"/>
<rect x="167.89" y="179.58" style="fill:#D1FEFB;" width="176.22" height="95.61"/>
<rect x="256" y="179.58" style="fill:#85FDF5;" width="88.11" height="95.61"/>
<g>
</g>
<g>
</g>
<g>
</g>
<g>
</g>
<g>
</g>
<g>
</g>
<g>
</g>
<g>
</g>
<g>
</g>
<g>
</g>
<g>
</g>
<g>
</g>
<g>
</g>
<g>
</g>
<g>
</g>
</svg>
